<svg xmlns="http://www.w3.org/2000/svg" viewBox="0 0 32 32" role="img" aria-label="Buynsell">
  <!-- Current mark language: dark tile + B + orange/white dots (matches favicon.png / icon.png) -->
  <rect width="32" height="32" rx="7" fill="#161516"/>
  <circle cx="12.2" cy="7.2" r="2.15" fill="#f26b3c"/>
  <circle cx="17.4" cy="7.8" r="1.85" fill="#ffffff"/>
  <path
    fill="#ffffff"
    d="M9.2 24.8V9.6h5.1c3.35 0 5.35 1.7 5.35 4.35 0 1.7-.9 3.05-2.35 3.7 1.7.6 2.75 2.1 2.75 4.05 0 2.9-2.15 4.1-5.55 4.1H9.2zm2.55-2.2h2.7c1.85 0 2.85-.75 2.85-2.05s-1-2-2.85-2H11.75v4.05zm0-6.15h2.35c1.7 0 2.6-.7 2.6-1.9s-.9-1.85-2.6-1.85h-2.35v3.75z"
  />
  <path
    fill="#ffffff"
    d="M8.4 17.2c1.35.35 2.1 1.05 2.35 2.05-.95-.55-1.7-.7-2.9-.55-.15-.5-.2-1-.15-1.5z"
    opacity=".95"
  />
</svg>
